# xmcd
#
# Track frame offsets:
#	150
#	16730
#	43700
#	61047
#	81800
#	104510
#	132750
#	171340
#	211787
#	236890
#	279645
#
# Disc length: 4578 seconds
#
# Revision: 0
# Processed by: cddbd v1.4PL0 Copyright (c) Steve Scherf et al.
# Submitted via: dBpowerAMP V4.0
#
DISCID=9111e00b
DTITLE=Eric Clapton - One More Car One More Rider (Live On Tour 2001) CD 1
DYEAR=2001
DGENRE=Blues
TTITLE0=Key To The Highway
TTITLE1=Reptile
TTITLE2=Got You On My Mind
TTITLE3=Tears In Heaven
TTITLE4=Bell Bottom Blues
TTITLE5=Change The World
TTITLE6=My Father's Eyes
TTITLE7=River Of Tears
TTITLE8=Goin' Down Slow
TTITLE9=She's Gone
TTITLE10=DATA
EXTD=
EXTT0=
EXTT1=
EXTT2=
EXTT3=
EXTT4=
EXTT5=
EXTT6=
EXTT7=
EXTT8=
EXTT9=
EXTT10=
PLAYORDER=
